HIERARCHY
ROOT root
{
	OFFSET	0	13.1	24.9
	CHANNELS 6  Xposition Yposition Zposition Xrotation Yrotation Zrotation
	JOINT spine_1
	{
		OFFSET	0	9.99999	0
		CHANNELS 3  Xrotation Yrotation Zrotation
		JOINT spine_2
		{
			OFFSET	0	112	-10
			CHANNELS 3  Xrotation Yrotation Zrotation
			JOINT spine_3
			{
				OFFSET	0	206.5	19.3
				CHANNELS 3  Xrotation Yrotation Zrotation
				JOINT spine_4
				{
					OFFSET	0	110.4	14.6
					CHANNELS 3  Xrotation Yrotation Zrotation
					JOINT neck_1
					{
						OFFSET	0	71.8	-50.3
						CHANNELS 3  Xrotation Yrotation Zrotation
						JOINT neck_2
						{
							OFFSET	0	86.2	-25.8
							CHANNELS 3  Xrotation Yrotation Zrotation
							JOINT head_ee
							{
								OFFSET	0	179.8	-8.7
								CHANNELS 3  Xrotation Yrotation Zrotation
								End Site
								{
									OFFSET	1	0	0
								}
							}
						}
					}
					JOINT left_clavicle
					{
						OFFSET	-43.2	22.4	-70.8
						CHANNELS 3  Xrotation Yrotation Zrotation
						JOINT left_shoulder
						{
							OFFSET	-93.9	-5.79999	48.7
							CHANNELS 3  Xrotation Yrotation Zrotation
							JOINT left_elbow
							{
								OFFSET	-291.4	-30.8	15.2
								CHANNELS 3  Xrotation Yrotation Zrotation
								JOINT left_lowarm_twist
								{
									OFFSET	-110.7	-3.89999	13.6
									CHANNELS 3  Xrotation Yrotation Zrotation
									JOINT left_hand
									{
										OFFSET	-110.7	-3.89999	13.6
										CHANNELS 3  Xrotation Yrotation Zrotation
										JOINT left_ee
										{
											OFFSET	-80.8	-5.10001	12.1
											CHANNELS 3  Xrotation Yrotation Zrotation
											End Site
											{
												OFFSET	1	0	0
											}
										}
									}
								}
							}
						}
					}
					JOINT right_clavicle
					{
						OFFSET	43.2	22.4	-70.8
						CHANNELS 3  Xrotation Yrotation Zrotation
						JOINT right_shoulder
						{
							OFFSET	93.9	-5.79999	48.7
							CHANNELS 3  Xrotation Yrotation Zrotation
							JOINT right_elbow
							{
								OFFSET	291.4	-30.8	15.2
								CHANNELS 3  Xrotation Yrotation Zrotation
								JOINT right_lowarm_twist
								{
									OFFSET	110.7	-3.89999	13.6
									CHANNELS 3  Xrotation Yrotation Zrotation
									JOINT right_hand
									{
										OFFSET	110.7	-3.89999	13.6
										CHANNELS 3  Xrotation Yrotation Zrotation
										JOINT right_ee
										{
											OFFSET	80.8	-5.10001	12.1
											CHANNELS 3  Xrotation Yrotation Zrotation
											End Site
											{
												OFFSET	1	0	0
											}
										}
									}
								}
							}
						}
					}
				}
			}
		}
	}
	JOINT left_hip
	{
		OFFSET	-82.8	-127.5	0.300001
		CHANNELS 3  Xrotation Yrotation Zrotation
		JOINT left_knee
		{
			OFFSET	-28.2	-396.7	2.2
			CHANNELS 3  Xrotation Yrotation Zrotation
			JOINT left_ankle
			{
				OFFSET	-11.7	-411.3	35.4
				CHANNELS 3  Xrotation Yrotation Zrotation
				JOINT left_toes
				{
					OFFSET	0	-60	-88.6
					CHANNELS 3  Xrotation Yrotation Zrotation
					JOINT left_foot_ee
					{
						OFFSET	-22.5	-16.5	-42.2
						CHANNELS 3  Xrotation Yrotation Zrotation
						End Site
						{
							OFFSET	1	0	0
						}
					}
				}
			}
		}
	}
	JOINT right_hip
	{
		OFFSET	82.8	-127.5	0.300001
		CHANNELS 3  Xrotation Yrotation Zrotation
		JOINT right_knee
		{
			OFFSET	28.2	-396.7	2.2
			CHANNELS 3  Xrotation Yrotation Zrotation
			JOINT right_ankle
			{
				OFFSET	11.7	-411.3	35.4
				CHANNELS 3  Xrotation Yrotation Zrotation
				JOINT right_toes
				{
					OFFSET	0	-60	-88.6
					CHANNELS 3  Xrotation Yrotation Zrotation
					JOINT right_foot_ee
					{
						OFFSET	22.5	-16.5	-42.2
						CHANNELS 3  Xrotation Yrotation Zrotation
						End Site
						{
							OFFSET	1	0	0
						}
					}
				}
			}
		}
	}
}
MOTION
Frames: 5
Frame Time: 0.02
921.883 700.918 -1509.69 -91.3604 83.7321 85.3692 3.58283 0.302403 2.98315 3.58778 0.112052 2.99633 3.59131 -0.334467 2.97973 3.57895 0.140105 2.99515 -22.1847 17.4121 -13.3614 -24.9498 39.6958 -3.24557 -0.0 0.0 -0.0 -7.57448 15.3937 -10.4716 -1.55713 -18.6599 77.4796 0.196604 -5.56275 0.00955146 -57.718 -5.00039 5.02448 8.11057 -23.0122 47.847 -0.0 0.0 -0.0 10.6708 -12.2892 -19.8154 -20.8291 27.5901 -60.3105 2.09877 46.1086 -0.893306 50.9237 1.03573 6.21086 -6.84179 -29.483 26.1857 0.0 0.0 0.0 18.6115 9.02657 -4.32456 -14.4352 0.320411 2.18625 2.74622 17.4825 -0.404297 -28.8849 0.0 0.0 -0.0 0.0 -0.0 14.5299 -6.95497 3.89743 -4.58276 -0.161372 -0.684617 31.1984 24.8403 4.67121 -40.1858 0.0 0.0 0.0 0.0 0.0 
917.351 701.351 -1510.22 -89.7855 83.4135 84.204 3.69265 0.371471 2.77253 3.6969 0.194365 2.79053 3.70425 -0.216847 2.78887 3.69347 0.226149 2.78813 -20.8625 16.8409 -13.2262 -23.1763 38.8454 -4.00079 -0.0 0.0 -0.0 -7.85172 14.0689 -11.3722 -3.17107 -16.6267 78.6664 0.256852 -7.25136 0.0162754 -54.4032 -4.59605 4.89315 8.62731 -24.2717 51.3761 -0.0 0.0 -0.0 10.9078 -11.7239 -20.3342 -21.928 28.4149 -59.9633 2.10085 46.1369 -0.894805 46.4344 0.725534 5.72718 -6.69302 -27.9697 26.676 0.0 0.0 0.0 18.7953 8.82856 -4.19165 -9.63638 0.275235 1.45153 2.07484 14.4237 -0.303791 -30.7456 0.0 0.0 -0.0 0.0 -0.0 14.445 -9.88948 3.18488 -5.98441 -0.199729 -0.896297 38.1429 25.6909 5.46128 -39.9188 0.0 0.0 0.0 0.0 0.0 
915.216 706.243 -1511.89 -88.1221 83.2249 82.8852 3.5885 0.440953 2.59543 3.59221 0.274963 2.61821 3.60305 -0.116397 2.63002 3.59353 0.300282 2.61543 -19.1058 16.4627 -8.0898 -20.9602 35.8357 -0.133366 -0.0 0.0 -0.0 -7.51192 12.5668 -11.2562 -4.06202 -14.3882 78.6493 0.259169 -7.31606 0.0165691 -50.1748 -4.09229 4.69202 8.42779 -21.9741 51.9207 -0.0 0.0 -0.0 10.5146 -12.0092 -19.5666 -21.0632 28.6709 -60.4127 2.09478 46.0541 -0.890428 42.4369 0.482045 5.27745 -5.35473 -25.1412 20.7473 0.0 0.0 0.0 18.8065 8.00406 -4.69122 -6.55069 0.213755 0.982069 11.9149 -2.49902 -1.70935 -30.9335 0.0 0.0 -0.0 0.0 -0.0 14.9162 -10.3684 2.86761 -6.94202 -0.222951 -1.04142 37.4505 26.0288 5.41167 -36.4815 0.0 0.0 0.0 0.0 0.0 
909.828 703.296 -1512.36 -87.1595 83.108 82.0963 3.76705 0.50157 2.50312 3.77048 0.341326 2.52994 3.7838 -0.0295448 2.55267 3.7749 0.373842 2.52534 -18.0774 15.7876 -8.10336 -19.6053 34.6637 -0.874111 -0.0 0.0 -0.0 -7.84766 12.2906 -11.9374 -4.73218 -12.3522 79.1396 0.298957 -8.42415 0.0220175 -48.1334 -3.85466 4.58173 8.60729 -22.1836 53.4951 -0.0 0.0 -0.0 10.4364 -12.7002 -19.3294 -21.2776 28.2501 -60.9559 2.10344 46.1721 -0.896669 35.9752 0.156639 4.51833 -4.38981 -22.2541 16.8888 0.0 0.0 0.0 18.1462 7.69991 -4.81424 -5.25062 0.180295 0.785364 16.0056 -5.88252 -2.28526 -32.2224 0.0 0.0 -0.0 0.0 -0.0 15.5434 -15.0139 2.50161 -10.81 -0.291966 -1.63083 38.3675 24.6261 5.4246 -32.0758 0.0 0.0 0.0 0.0 0.0 
903.773 698.101 -1513.48 -87.5441 82.8862 82.7968 3.85044 0.467686 2.34711 3.85345 0.317429 2.37209 3.86498 -0.0268959 2.39308 3.85716 0.351276 2.36732 -18.7464 15.7098 -8.42485 -20.362 34.6129 -0.979801 -0.0 0.0 -0.0 -7.93487 11.541 -12.3322 -6.58265 -11.7044 80.0039 0.331867 -9.33595 0.0270977 -45.077 -3.50656 4.40099 9.30337 -23.7696 59.0018 -0.0 0.0 -0.0 10.5881 -12.6443 -19.6138 -21.3069 27.5341 -61.0185 2.04383 45.3492 -0.853961 31.1001 -0.0310444 3.92433 -2.52021 -17.1248 8.42392 0.0 0.0 0.0 17.3802 7.24288 -5.20415 -4.65411 0.16345 0.69537 22.0955 -13.7031 -3.19095 -30.588 0.0 0.0 -0.0 0.0 -0.0 15.8379 -15.9416 2.68994 -12.6019 -0.310419 -1.90514 38.2627 25.4375 5.45881 -25.0178 0.0 0.0 0.0 0.0 0.0 
